<svg width="23" height="21" viewBox="0 0 23 21" fill="white" xmlns="http://www.w3.org/2000/svg" xmlns:xlink="http://www.w3.org/1999/xlink">>
  <defs>
    <path id="review" d="M9.24 4.38672C9.81518 4.14551 10.0564 3.45901 9.79663 2.90238L8.88747 0.991294C8.62771 0.453407 7.99687 0.212016 7.44024 0.453407C5.86313 1.12136 4.50868 1.99341 3.43253 3.051C2.11518 4.29395 1.22458 5.72262 0.742169 7.29973C0.259759 8.89558 0 11.0662 0 13.8308V19.527C0 20.1393 0.500964 20.6402 1.11325 20.6402H8.40506C9.01735 20.6402 9.51832 20.1393 9.51832 19.527V12.2352C9.51832 11.6227 9.01735 11.1219 8.40506 11.1219H4.91687C4.95398 9.24774 5.39928 7.74503 6.21566 6.61304C6.88362 5.70425 7.88554 4.96208 9.24 4.38672Z"/>
  </defs>
  <use xlink:href="#review" x="0" y="0"/>
  <use xlink:href="#review" x="12.2" y="0"/>
</svg>
